<mxfile host="65bd71144e">
    <diagram id="RubOjwIvC5In3i-4Z4oB" name="Page-1">
        <mxGraphModel dx="540" dy="2021" grid="1" gridSize="10" guides="1" tooltips="1" connect="1" arrows="1" fold="1" page="1" pageScale="1" pageWidth="1200" pageHeight="1600" math="0" shadow="0">
            <root>
                <mxCell id="0"/>
                <mxCell id="1" parent="0"/>
                <mxCell id="2" value="" style="whiteSpace=wrap;html=1;" parent="1" vertex="1">
                    <mxGeometry x="455" y="-180" width="490" height="1560" as="geometry"/>
                </mxCell>
                <mxCell id="3" value="&lt;h1 style=&quot;margin-top: 0px;&quot;&gt;Anwendung&lt;/h1&gt;&lt;p&gt;Lorem ipsum dolor sit amet, consectetur adipisicing elit, sed do eiusmod tempor incididunt ut labore et dolore magna aliqua.&lt;/p&gt;" style="text;html=1;whiteSpace=wrap;overflow=hidden;rounded=0;" parent="1" vertex="1">
                    <mxGeometry x="500" y="260" width="340" height="120" as="geometry"/>
                </mxCell>
                <mxCell id="6" value="" style="whiteSpace=wrap;html=1;aspect=fixed;fillColor=#1ba1e2;strokeColor=#006EAF;fontColor=#ffffff;" parent="1" vertex="1">
                    <mxGeometry x="510" y="390" width="90" height="90" as="geometry"/>
                </mxCell>
                <mxCell id="12" value="&lt;h2 style=&quot;margin-top: 0px;&quot;&gt;Wie sicher ist das Femidom?&lt;/h2&gt;&lt;p&gt;Der Pearl-Index vom Femidom liegt bei 5-25. Dies beutet das 5-25 von 100 Frauen&lt;/p&gt;" style="text;html=1;whiteSpace=wrap;overflow=hidden;rounded=0;" parent="1" vertex="1">
                    <mxGeometry x="505" y="650" width="415" height="120" as="geometry"/>
                </mxCell>
                <mxCell id="19" value="" style="verticalLabelPosition=bottom;verticalAlign=top;html=1;shape=mxgraph.basic.rect;fillColor2=none;strokeWidth=1;size=20;indent=5;" vertex="1" parent="1">
                    <mxGeometry x="710" y="790" width="190" height="130" as="geometry"/>
                </mxCell>
                <mxCell id="20" value="&lt;h2 style=&quot;margin-top: 0px;&quot;&gt;Risiken und Gefahr&lt;/h2&gt;&lt;p&gt;Lorem ipsum dolor sit amet, consectetur adipisicing elit, sed do eiusmod tempor incididunt ut labore et dolore magna aliqua.&lt;/p&gt;" style="text;html=1;whiteSpace=wrap;overflow=hidden;rounded=0;" vertex="1" parent="1">
                    <mxGeometry x="510" y="795" width="180" height="120" as="geometry"/>
                </mxCell>
                <mxCell id="22" value="" style="verticalLabelPosition=bottom;verticalAlign=top;html=1;shape=mxgraph.basic.patternFillRect;fillStyle=diagRev;step=5;fillStrokeWidth=0.2;fillStrokeColor=#dddddd;fillColor=light-dark(#E51400,#E51400);fontColor=#ffffff;strokeColor=#B20000;" vertex="1" parent="1">
                    <mxGeometry x="500" y="80" width="400" height="120" as="geometry"/>
                </mxCell>
                <mxCell id="23" value="&lt;h1&gt;&lt;font style=&quot;font-size: 25px;&quot;&gt;Das Frauenkondom&lt;/font&gt;&lt;/h1&gt;" style="text;html=1;align=center;verticalAlign=middle;whiteSpace=wrap;rounded=0;" vertex="1" parent="1">
                    <mxGeometry x="545" y="-80" width="300" height="60" as="geometry"/>
                </mxCell>
                <mxCell id="24" value="&lt;h1 style=&quot;margin-top: 0px;&quot;&gt;&lt;span style=&quot;background-color: transparent; font-size: 12px; font-weight: normal;&quot;&gt;Lorem ipsum dolor sit amet, consectetur adipisicing elit, sed do eiusmod tempor incididunt&amp;nbsp;&lt;/span&gt;&lt;/h1&gt;" style="text;html=1;whiteSpace=wrap;overflow=hidden;rounded=0;align=center;" vertex="1" parent="1">
                    <mxGeometry x="560" y="-10" width="270" height="70" as="geometry"/>
                </mxCell>
                <mxCell id="25" value="" style="ellipse;whiteSpace=wrap;html=1;aspect=fixed;fillColor=#a20025;fontColor=#ffffff;strokeColor=#6F0000;" vertex="1" parent="1">
                    <mxGeometry x="530" y="1025" width="100" height="100" as="geometry"/>
                </mxCell>
                <mxCell id="26" value="&lt;h2 style=&quot;margin-top: 0px;&quot;&gt;&lt;span style=&quot;background-color: transparent;&quot;&gt;Ärtzte Empfehlen&lt;/span&gt;&lt;/h2&gt;&lt;h2 style=&quot;margin-top: 0px;&quot;&gt;&lt;span style=&quot;background-color: transparent; font-size: 12px; font-weight: normal;&quot;&gt;Dr. Krause empfielt Lorem ipsum dolor sit amet, consectetur adipisicing elit, sed do eiusmod tempor incididunt ut labore et dolore magna aliqua.&lt;/span&gt;&lt;/h2&gt;" style="text;html=1;whiteSpace=wrap;overflow=hidden;rounded=0;" vertex="1" parent="1">
                    <mxGeometry x="670" y="1010" width="230" height="130" as="geometry"/>
                </mxCell>
                <mxCell id="35" value="" style="group" vertex="1" connectable="0" parent="1">
                    <mxGeometry x="510" y="1210" width="190" height="110" as="geometry"/>
                </mxCell>
                <mxCell id="28" value="" style="whiteSpace=wrap;html=1;fillColor=#60a917;fontColor=#ffffff;strokeColor=#2D7600;" vertex="1" parent="35">
                    <mxGeometry width="190" height="90" as="geometry"/>
                </mxCell>
                <mxCell id="31" value="" style="ellipse;whiteSpace=wrap;html=1;aspect=fixed;" vertex="1" parent="35">
                    <mxGeometry x="15" y="10" width="25" height="25" as="geometry"/>
                </mxCell>
                <mxCell id="33" value="Ich nutze das Femidom schon seit 1 Jahr und bin zufrieden." style="text;overflow=hidden;rounded=0;fontColor=default;whiteSpace=wrap;" vertex="1" parent="35">
                    <mxGeometry x="15" y="40" width="165" height="70" as="geometry"/>
                </mxCell>
                <mxCell id="34" value="Tolles Produk" style="text;align=center;verticalAlign=middle;whiteSpace=wrap;rounded=0;fontStyle=1" vertex="1" parent="35">
                    <mxGeometry x="40" y="7.5" width="100" height="30" as="geometry"/>
                </mxCell>
                <mxCell id="37" value="" style="group" vertex="1" connectable="0" parent="1">
                    <mxGeometry x="710" y="1210" width="190" height="110" as="geometry"/>
                </mxCell>
                <mxCell id="38" value="" style="whiteSpace=wrap;html=1;fillColor=#fa6800;fontColor=#000000;strokeColor=#C73500;" vertex="1" parent="37">
                    <mxGeometry width="190" height="90" as="geometry"/>
                </mxCell>
                <mxCell id="39" value="" style="ellipse;whiteSpace=wrap;html=1;aspect=fixed;" vertex="1" parent="37">
                    <mxGeometry x="15" y="10" width="25" height="25" as="geometry"/>
                </mxCell>
                <mxCell id="40" value="Ich nutze das Femidom schon seit 1 Jahr und bin zufrieden." style="text;overflow=hidden;rounded=0;fontColor=default;whiteSpace=wrap;" vertex="1" parent="37">
                    <mxGeometry x="15" y="40" width="165" height="70" as="geometry"/>
                </mxCell>
                <mxCell id="41" value="Endlich ein Kondom für Frauen" style="text;align=left;verticalAlign=middle;whiteSpace=wrap;rounded=0;fontStyle=1;horizontal=1;fontSize=11;" vertex="1" parent="37">
                    <mxGeometry x="50" y="10" width="120" height="30" as="geometry"/>
                </mxCell>
                <mxCell id="43" value="" style="rounded=0;whiteSpace=wrap;html=1;fillColor=light-dark(#FFFFFF,#FFFFFF);" vertex="1" parent="1">
                    <mxGeometry x="455" y="-180" width="495" height="40" as="geometry"/>
                </mxCell>
                <mxCell id="49" value="" style="whiteSpace=wrap;html=1;aspect=fixed;fillColor=#1ba1e2;strokeColor=#006EAF;fontColor=#ffffff;" vertex="1" parent="1">
                    <mxGeometry x="510" y="490" width="90" height="90" as="geometry"/>
                </mxCell>
                <mxCell id="50" value="" style="whiteSpace=wrap;html=1;aspect=fixed;fillColor=#1ba1e2;strokeColor=#006EAF;fontColor=#ffffff;" vertex="1" parent="1">
                    <mxGeometry x="610" y="390" width="90" height="90" as="geometry"/>
                </mxCell>
                <mxCell id="51" value="" style="whiteSpace=wrap;html=1;aspect=fixed;fillColor=#1ba1e2;strokeColor=#006EAF;fontColor=#ffffff;" vertex="1" parent="1">
                    <mxGeometry x="710" y="390" width="90" height="90" as="geometry"/>
                </mxCell>
                <mxCell id="52" value="" style="whiteSpace=wrap;html=1;aspect=fixed;fillColor=#1ba1e2;strokeColor=#006EAF;fontColor=#ffffff;" vertex="1" parent="1">
                    <mxGeometry x="810" y="390" width="90" height="90" as="geometry"/>
                </mxCell>
                <mxCell id="53" value="" style="whiteSpace=wrap;html=1;aspect=fixed;fillColor=#1ba1e2;strokeColor=#006EAF;fontColor=#ffffff;" vertex="1" parent="1">
                    <mxGeometry x="610" y="490" width="90" height="90" as="geometry"/>
                </mxCell>
                <mxCell id="54" value="" style="whiteSpace=wrap;html=1;aspect=fixed;fillColor=#1ba1e2;strokeColor=#006EAF;fontColor=#ffffff;" vertex="1" parent="1">
                    <mxGeometry x="710" y="490" width="90" height="90" as="geometry"/>
                </mxCell>
                <mxCell id="55" value="" style="whiteSpace=wrap;html=1;aspect=fixed;fillColor=#1ba1e2;strokeColor=#006EAF;fontColor=#ffffff;" vertex="1" parent="1">
                    <mxGeometry x="810" y="490" width="90" height="90" as="geometry"/>
                </mxCell>
                <mxCell id="57" value="" style="rounded=0;whiteSpace=wrap;html=1;fontColor=light-dark(#000000,#000000);strokeColor=none;fillColor=light-dark(#FFFFFF,#CC0066);" vertex="1" parent="1">
                    <mxGeometry x="510" y="450" width="90" height="30" as="geometry"/>
                </mxCell>
                <mxCell id="58" value="" style="rounded=0;whiteSpace=wrap;html=1;fontColor=light-dark(#000000,#000000);strokeColor=none;fillColor=light-dark(#FFFFFF,#CC0066);" vertex="1" parent="1">
                    <mxGeometry x="610" y="450" width="90" height="30" as="geometry"/>
                </mxCell>
                <mxCell id="73" value="" style="rounded=0;whiteSpace=wrap;html=1;fontColor=light-dark(#000000,#000000);strokeColor=none;fillColor=light-dark(#FFFFFF,#CC0066);" vertex="1" parent="1">
                    <mxGeometry x="710" y="450" width="90" height="30" as="geometry"/>
                </mxCell>
                <mxCell id="74" value="" style="rounded=0;whiteSpace=wrap;html=1;fontColor=light-dark(#000000,#000000);strokeColor=none;fillColor=light-dark(#FFFFFF,#CC0066);" vertex="1" parent="1">
                    <mxGeometry x="810" y="450" width="90" height="30" as="geometry"/>
                </mxCell>
                <mxCell id="75" value="" style="rounded=0;whiteSpace=wrap;html=1;fontColor=light-dark(#000000,#000000);strokeColor=none;fillColor=light-dark(#FFFFFF,#CC0066);" vertex="1" parent="1">
                    <mxGeometry x="810" y="550" width="90" height="30" as="geometry"/>
                </mxCell>
                <mxCell id="76" value="" style="rounded=0;whiteSpace=wrap;html=1;fontColor=light-dark(#000000,#000000);strokeColor=none;fillColor=light-dark(#FFFFFF,#CC0066);" vertex="1" parent="1">
                    <mxGeometry x="710" y="550" width="90" height="30" as="geometry"/>
                </mxCell>
                <mxCell id="77" value="" style="rounded=0;whiteSpace=wrap;html=1;fontColor=light-dark(#000000,#000000);strokeColor=none;fillColor=light-dark(#FFFFFF,#CC0066);" vertex="1" parent="1">
                    <mxGeometry x="610" y="550" width="90" height="30" as="geometry"/>
                </mxCell>
                <mxCell id="78" value="" style="rounded=0;whiteSpace=wrap;html=1;fontColor=light-dark(#000000,#000000);strokeColor=none;fillColor=light-dark(#FFFFFF,#CC0066);" vertex="1" parent="1">
                    <mxGeometry x="510" y="550" width="90" height="30" as="geometry"/>
                </mxCell>
            </root>
        </mxGraphModel>
    </diagram>
</mxfile>